<svg width="68" height="68" viewBox="0 0 68 68" fill="none" xmlns="http://www.w3.org/2000/svg">
<path d="M33.9994 0.666016C15.6327 0.666016 0.666016 15.6327 0.666016 33.9994C0.666016 52.366 15.6327 67.3327 33.9994 67.3327C52.366 67.3327 67.3327 52.366 67.3327 33.9994C67.3327 15.6327 52.366 0.666016 33.9994 0.666016ZM43.2994 35.766L31.5327 47.5327C31.0327 48.0327 30.3993 48.266 29.766 48.266C29.1327 48.266 28.4993 48.0327 27.9993 47.5327C27.0327 46.566 27.0327 44.966 27.9993 43.9994L37.9994 33.9994L27.9993 23.9994C27.0327 23.0327 27.0327 21.4327 27.9993 20.466C28.966 19.4994 30.566 19.4994 31.5327 20.466L43.2994 32.2327C44.2994 33.1994 44.2994 34.7993 43.2994 35.766Z" fill="#ED1B24" fill-opacity="0.7"/>
</svg>
