<svg width="36" height="36" viewBox="0 0 36 36" fill="none" xmlns="http://www.w3.org/2000/svg">
<path d="M35.9999 18.3998C35.9999 16.9198 35.8773 15.8398 35.6121 14.7198H18.3672V21.3998H28.4896C28.2856 23.0598 27.1835 25.5598 24.7345 27.2397L24.7002 27.4634L30.1527 31.6029L30.5305 31.6399C33.9998 28.4998 35.9999 23.8798 35.9999 18.3998Z" fill="#4285F4"/>
<path d="M18.3662 36.0002C23.3253 36.0002 27.4885 34.4001 30.5294 31.6402L24.7335 27.24C23.1825 28.3 21.1008 29.04 18.3662 29.04C13.5091 29.04 9.38668 25.9001 7.91715 21.56L7.70176 21.578L2.03215 25.878L1.95801 26.08C4.97838 31.96 11.1825 36.0002 18.3662 36.0002Z" fill="#34A853"/>
<path d="M7.9183 21.5603C7.53055 20.4403 7.30615 19.2402 7.30615 18.0003C7.30615 16.7602 7.53056 15.5603 7.8979 14.4403L7.88763 14.2017L2.14696 9.83264L1.95914 9.92019C0.714295 12.3602 0 15.1003 0 18.0003C0 20.9003 0.714295 23.6402 1.95914 26.0803L7.9183 21.5603Z" fill="#FBBC05"/>
<path d="M18.3663 6.95997C21.8152 6.95997 24.1417 8.41997 25.4683 9.64006L30.652 4.68001C27.4684 1.78001 23.3254 0 18.3663 0C11.1825 0 4.9784 4.03998 1.95801 9.91995L7.89679 14.44C9.38672 10.1 13.5092 6.95997 18.3663 6.95997Z" fill="#EB4335"/>
</svg>
