<svg width="189" height="86" viewBox="0 0 189 86" fill="none" xmlns="http://www.w3.org/2000/svg">
<g clip-path="url(#clip0_8_234)">
<path d="M188.23 0H0V85.19H188.23V0Z" fill="#ED1B24"/>
<path d="M162.55 12.09H173.08V62.02H182.01V74.61H162.55V12.09Z" fill="white"/>
<path d="M182.93 15.41C182.93 17.62 181.14 19.42 178.92 19.42C176.7 19.42 174.91 17.63 174.91 15.41C174.91 13.19 176.7 11.4 178.92 11.4C181.14 11.4 182.93 13.19 182.93 15.41V15.41Z" stroke="white" stroke-width="1.67"/>
<path d="M177.36 17.48V13.27H179.22C179.59 13.27 179.88 13.31 180.08 13.38C180.27 13.46 180.43 13.59 180.55 13.78C180.67 13.97 180.73 14.18 180.73 14.41C180.73 14.71 180.63 14.96 180.44 15.16C180.25 15.37 179.95 15.49 179.55 15.55C179.7 15.62 179.81 15.69 179.89 15.76C180.05 15.91 180.21 16.1 180.35 16.32L181.08 17.46H180.38L179.83 16.59C179.67 16.34 179.53 16.14 179.43 16.01C179.33 15.88 179.23 15.78 179.15 15.73C179.07 15.68 178.98 15.64 178.9 15.62C178.84 15.61 178.73 15.6 178.59 15.6H177.95V17.47H177.39L177.36 17.48ZM177.92 15.13H179.12C179.37 15.13 179.57 15.1 179.72 15.05C179.86 15 179.97 14.91 180.05 14.8C180.12 14.68 180.16 14.56 180.16 14.42C180.16 14.22 180.09 14.06 179.94 13.93C179.8 13.8 179.57 13.74 179.26 13.74H177.93V15.13H177.92Z" fill="white"/>
<path d="M7.74023 74.38V12.09H21.9402L26.9802 38.2L32.7002 12.09H46.4402V68.2L55.3702 12.09H69.3402L78.0402 68.2V12.32H96.5902C96.5902 12.32 103 13.46 106.21 22.4L104.84 12.09H116.06L121.33 44.38L126.83 12.32H158.43V24H149.04V36.82H157.97V49.87H149.27V61.78H158.43V74.38H138.05V14.38L127.51 74.38H114.92L108.28 34.53C108.28 34.53 107.14 45.52 100.95 50.56L108.97 74.38H97.9802L90.1902 53.54V74.38H67.9802L66.8402 68.43H58.3702L56.5402 74.38H35.4702V51.48L29.9702 74.38H24.2502L19.2102 51.71V74.15L7.76023 74.38H7.74023ZM65.6802 56.29L62.4702 37.28L59.7202 56.29H65.6702H65.6802ZM89.9502 41.86C97.5102 41.4 96.8202 32.01 96.8202 32.01C95.6802 22.85 89.9502 23.31 89.9502 23.31V41.86Z" fill="white"/>
</g>
<defs>
<clipPath id="clip0_8_234">
<rect width="188.23" height="85.19" fill="white"/>
</clipPath>
</defs>
</svg>
